# xmcd
#
# Track frame offsets:
#	180
#	11352
#	29483
#	48094
#	64454
#	88825
#	105115
#	121138
#	131350
#	149322
#	162925
#	176466
#	191996
#	210053
#
# Disc length: 2975 seconds
#
# Revision: 1
# Processed by: cddbd v1.5.1PL0 Copyright (c) Steve Scherf et al.
# Submitted via: audiograbber 1.83.01
#
DISCID=b20b9d0e
DTITLE=Henry Cooper - Baby Please
DYEAR=1900
DGENRE=Blues
TTITLE0=Bad Times In Season
TTITLE1=Baby Please
TTITLE2=Don't Want To Move
TTITLE3=No Way
TTITLE4=Million Dollar Hooker
TTITLE5=Automatic Trouble
TTITLE6=Getting Closer
TTITLE7=Dynasonic Boogie
TTITLE8=Don't You Get Tired Of Treating Me Bad
TTITLE9=If You Don't Love Me
TTITLE10=Dis Pas CA
TTITLE11=Hard Head
TTITLE12=Darkness
TTITLE13=Burn It Down
EXTD=
EXTT0=
EXTT1=
EXTT2=
EXTT3=
EXTT4=
EXTT5=
EXTT6=
EXTT7=
EXTT8=
EXTT9=
EXTT10=
EXTT11=
EXTT12=
EXTT13=
PLAYORDER=
